<?xml version="1.0" encoding="utf-8"?>
<!-- Generator: Adobe Illustrator 19.0.0, SVG Export Plug-In . SVG Version: 6.00 Build 0)  -->
<svg version="1.1" id="Layer_1" xmlns="http://www.w3.org/2000/svg" xmlns:xlink="http://www.w3.org/1999/xlink" x="0px" y="0px"
	 viewBox="0 0 512 512" style="enable-background:new 0 0 512 512;" xml:space="preserve">
<style type="text/css">
	.st0{fill:#FFFFFF;}
</style>
<g id="XMLID_394_">
	<path id="XMLID_395_" class="st0" d="M384.7,192.2c0,104.6-84.8,189.3-189.3,189.3S6,296.7,6,192.2S90.8,2.8,195.3,2.8
		S384.7,87.6,384.7,192.2z M195.3,47c-80.2,0-145.2,65-145.2,145.2s65,145.2,145.2,145.2s145.2-65,145.2-145.2S275.5,47,195.3,47z"
		/>
	<path id="XMLID_398_" class="st0" d="M453.7,508.2L278.1,332.6c-1.2-1.2-1.2-3.3,0-4.5l46.8-46.8c1.2-1.2,3.3-1.2,4.5,0
		l175.7,175.7c1.2,1.2,1.2,3.3,0,4.5l-46.8,46.8C457,509.5,455,509.5,453.7,508.2z"/>
</g>
</svg>
