<?xml version="1.0" encoding="utf-8"?>
<!-- Generator: Adobe Illustrator 19.0.0, SVG Export Plug-In . SVG Version: 6.00 Build 0)  -->
<svg version="1.1" id="Layer_1" xmlns="http://www.w3.org/2000/svg" xmlns:xlink="http://www.w3.org/1999/xlink" x="0px" y="0px"
	 viewBox="0 0 512 512" style="enable-background:new 0 0 512 512;" xml:space="preserve">
<style type="text/css">
	.st0{fill:#FF6200;}
	.st1{fill:#E1004C;}
	.st2{fill:#00644E;}
	.st3{fill:#00A47F;}
	.st4{fill:#70E500;}
</style>
<polyline id="XMLID_8_" class="st0" points="506,475.1 506,475.1 506,86 444,9.5 377.7,121 256,84 203.7,173.9 86.9,166 6,475.1 "/>
<polyline id="XMLID_6_" class="st1" points="506,474.1 506,474.1 506,116.8 448,75 377.7,166 283,116.4 203.7,245.2 134.4,189.3 
	6,474.1 "/>
<rect id="XMLID_1_" x="6" y="474.1" class="st2" width="500" height="31.9"/>
<polyline id="XMLID_7_" class="st3" points="506,474.1 506,474.1 506,159.4 464.9,115.8 377.7,236.3 323.8,208.8 203.7,358.8 
	159.9,314.6 6,474.1 "/>
<polyline id="XMLID_9_" class="st4" points="506,474.1 506,474.1 506,177.9 464.9,203.9 429.9,288.5 323.8,291.4 203.7,391.4 
	159.9,364.3 6,474.1 "/>
</svg>
