<?xml version="1.0" encoding="utf-8"?>
<!-- Generator: Adobe Illustrator 19.0.0, SVG Export Plug-In . SVG Version: 6.00 Build 0)  -->
<svg version="1.1" id="Layer_1" xmlns="http://www.w3.org/2000/svg" xmlns:xlink="http://www.w3.org/1999/xlink" x="0px" y="0px"
	 viewBox="0 0 160 255" style="enable-background:new 0 0 160 255;" xml:space="preserve">
<style type="text/css">
	.st0{fill:#353535;stroke:#9D9D9D;stroke-width:6;stroke-miterlimit:10;}
	.st1{fill:#E1004C;}
	.st2{fill:#70E500;}
	.st3{fill:#FF6200;}
	.st4{fill:#00644E;}
</style>
<g id="XMLID_2_">
	<path id="XMLID_19_" class="st0" d="M80,7.7C39.1,7.7,5.9,40.9,5.9,81.8c0,13.7,10.2,37.6,10.2,37.6L79,248.2l64.9-128.9
		c0,0,10.1-23.8,10.1-37.4C154.1,40.9,120.9,7.7,80,7.7z"/>
	<g id="XMLID_1_">
		<path id="XMLID_8_" class="st1" d="M42.5,82H79V45C58.9,45.4,42.6,61.8,42.5,82z"/>
		<path id="XMLID_9_" class="st2" d="M79.8,45c-0.3,0-0.5,0-0.8,0v37h38C116.9,61.5,100.2,45,79.8,45z"/>
		<path id="XMLID_10_" class="st3" d="M117,82H79v37.5c0.3,0,0.5,0,0.8,0c20.6,0,37.3-16.7,37.3-37.3C117,82.2,117,82.1,117,82z"/>
		<path id="XMLID_11_" class="st4" d="M42.5,82c0,0.1,0,0.2,0,0.3c0,20.3,16.3,36.8,36.5,37.2V82H42.5z"/>
	</g>
</g>
</svg>
